<svg width="203" height="180" viewBox="0 0 203 180" fill="none" xmlns="http://www.w3.org/2000/svg">
<path d="M203 90C203 40.2595 157.604 0 101.5 0C45.4042 0 0 40.2525 0 90C0 138.465 43.7072 179.204 99.8708 179.982C100.825 180.02 102.897 179.985 102.937 179.985C102.954 179.985 103.024 179.984 103.043 179.983C158.45 179.256 203 139.22 203 90ZM101.5 5.27344C154.309 5.27344 197.053 43.1677 197.053 90C197.053 109.522 189.652 128.032 176.035 143.022C175.799 133.575 168.89 125.368 158.687 122.503L139.449 117.102C138.36 116.276 138.647 116.632 120.936 108.851V101.543C128.658 96.6814 134.005 89.0072 134.988 80.1584C138.654 79.6071 141.455 76.7707 141.455 73.3655C141.455 68.3149 141.455 51.711 141.455 46.5303C141.455 40.6216 136.034 35.8147 129.37 35.8147H129.064C129.007 35.8147 128.96 35.7736 128.96 35.723C128.96 29.8143 123.539 25.0073 116.875 25.0073H85.4769C72.2743 25.0073 61.5336 34.5312 61.5336 46.2379C61.5336 47.694 62.865 48.8746 64.5072 48.8746C66.1495 48.8746 67.4809 47.694 67.4809 46.2379C67.4809 37.4389 75.5537 30.2808 85.4769 30.2808H116.875C120.26 30.2808 123.013 32.722 123.013 35.723C123.013 38.6814 125.727 41.0882 129.064 41.0882H129.37C132.755 41.0882 135.508 43.5294 135.508 46.5303V61.5357H132.186C130.33 61.5357 128.819 60.1966 128.819 58.551V55.4745C128.819 49.6266 122.381 45.501 116.12 47.3361C106.692 50.0991 96.3072 50.0998 86.8673 47.3347C80.6049 45.501 74.1687 49.6266 74.1687 55.4734V58.551C74.1687 60.197 72.6585 61.5361 70.8026 61.5361H67.4805V58.4237C67.4805 56.9675 66.1491 55.787 64.5068 55.787C62.8646 55.787 61.5332 56.9675 61.5332 58.4237V73.3658C61.5332 76.7714 64.334 79.6075 68.0006 80.1591C68.9835 89.0082 74.3309 96.6821 82.052 101.544V108.854C64.378 116.62 64.6115 116.293 63.5422 117.105L44.3139 122.503C34.1103 125.368 27.2016 133.575 26.9649 143.023C13.3484 128.032 5.94727 109.522 5.94727 90C5.94727 43.174 48.6835 5.27344 101.5 5.27344ZM67.4079 137.489L69.719 135.444C72.1312 133.309 72.7018 130.069 71.1392 127.383L67.4729 121.08L79.4888 115.846C78.2101 120.588 78.2517 125.8 78.8675 130.684C78.8679 130.688 78.8687 130.692 78.8691 130.695C80.407 142.874 86.0137 156.689 91.6168 167.889C82.3895 159.655 70.058 147.544 66.9523 139.148C66.7363 138.564 66.9111 137.929 67.4079 137.489ZM67.4801 66.8092H70.8022C75.9379 66.8092 80.1156 63.1044 80.1156 58.5506V55.473C80.1156 53.2332 82.5762 51.6322 85.0134 52.3452C95.6447 55.459 107.354 55.4586 117.986 52.3431C120.394 51.6375 122.872 53.2238 122.872 55.4745V58.551C122.872 63.1048 127.05 66.8092 132.186 66.8092H135.508V73.3655C135.508 74.257 134.69 74.9819 133.685 74.9819C131.292 74.9819 129.299 76.647 129.148 78.7729C128.231 91.6734 116.084 101.779 101.494 101.779C86.9046 101.779 74.7571 91.6734 73.8397 78.7729C73.6886 76.6473 71.6959 74.9819 69.3035 74.9819C68.298 74.9819 67.4805 74.257 67.4805 73.3655V66.8092H67.4801ZM101.497 174.124C99.5675 170.692 96.9618 165.803 94.3553 160.129L99.2385 143.1H103.761L108.641 160.124C106.03 165.809 103.421 170.703 101.497 174.124ZM97.5883 127.027C95.9052 128.274 92.4526 130.831 89.7534 132.83C89.19 133.247 88.3831 133.245 87.8257 132.839L84.6827 129.393C84.1629 124.771 84.2145 119.661 85.8424 115.286L97.5883 127.027ZM88.7832 138.421C89.5412 138.421 90.2989 138.312 91.0312 138.106L93.6821 141.077L90.6875 151.521C88.9723 147.136 87.426 142.564 86.2893 138.032C87.0945 138.286 87.9371 138.421 88.7832 138.421ZM104.583 137.827H98.3654L95.9456 135.115L101.824 130.761L107.14 134.792L104.583 137.827ZM113.352 132.563L106.032 127.014L117.186 115.383C118.775 119.728 118.821 124.761 118.322 129.287L115.283 132.589C114.719 132.992 113.912 132.988 113.352 132.563ZM101.494 107.052C106.279 107.052 110.846 106.153 114.989 104.538V109.533L101.798 123.288L87.9989 109.495V104.537C92.1414 106.153 96.7085 107.052 101.494 107.052ZM112.309 151.513L109.305 141.033L112.006 137.828C112.763 138.05 113.549 138.166 114.335 138.166C115.157 138.166 115.975 138.038 116.76 137.798C115.626 142.379 114.07 147.01 112.309 151.513ZM32.9003 148.972V143.523C32.9003 136.176 38.2084 129.748 46.1084 127.531L61.9618 123.08C62.1204 123.409 61.9574 123.092 65.8537 129.801C66.2244 130.438 66.0892 131.206 65.5175 131.712L63.2064 133.757C61.1117 135.611 60.3814 138.307 61.3012 140.792C65.0968 151.051 80.0284 165.258 90.2763 174.148C68.5181 171.904 48.4353 163.169 32.9003 148.972ZM112.717 174.148C118.244 169.354 125.171 162.985 130.957 156.535C131.98 155.395 131.766 153.737 130.481 152.83C129.196 151.924 127.325 152.112 126.302 153.252C121.633 158.457 116.174 163.627 111.364 167.913C116.984 156.684 122.612 142.823 124.136 130.606C124.136 130.602 124.137 130.597 124.137 130.593C124.741 125.741 124.777 120.574 123.505 115.846L135.521 121.081L131.854 127.384C130.292 130.07 130.863 133.309 133.275 135.444L135.586 137.489C136.083 137.929 136.257 138.565 136.041 139.148C135.575 140.408 134.867 141.822 133.934 143.352C133.154 144.634 133.693 146.233 135.137 146.925C136.583 147.618 138.387 147.14 139.167 145.859C140.267 144.053 141.117 142.348 141.692 140.792C142.612 138.306 141.882 135.611 139.787 133.757L137.477 131.712C136.905 131.206 136.77 130.437 137.14 129.801C141.008 123.14 140.876 123.403 141.033 123.079L156.891 127.53C164.792 129.748 170.099 136.175 170.099 143.523V148.972C154.599 163.137 134.53 171.9 112.717 174.148Z" fill="black"/>
</svg>
