<svg width="100" height="88" viewBox="0 0 100 88" fill="none" xmlns="http://www.w3.org/2000/svg">
<g clip-path="url(#clip0_45:50)">
<path d="M27.3586 19C23.53 18.9999 19.7872 19.9988 16.6038 21.8706C13.4203 23.7423 10.939 26.4027 9.47376 29.5154C8.00849 32.6281 7.62503 36.0533 8.37187 39.3578C9.11871 42.6623 10.9623 45.6977 13.6695 48.0801C16.3767 50.4625 19.8259 52.085 23.581 52.7424C27.3361 53.3997 31.2283 53.0624 34.7656 51.7731C38.3028 50.4838 41.3261 48.3004 43.4532 45.499C45.5803 42.6976 46.7156 39.4041 46.7156 36.0349C46.7098 31.5186 44.6686 27.1888 41.0397 23.9953C37.4109 20.8017 32.4907 19.0053 27.3586 19ZM16.5805 47.1504C16.6302 45.6949 17.3215 44.3135 18.5082 43.2987C19.6948 42.2838 21.2836 41.7151 22.9383 41.7129H31.7789C33.4337 41.715 35.0226 42.2836 36.2093 43.2985C37.3959 44.3134 38.0872 45.6948 38.1367 47.1504C35.1365 49.4172 31.3129 50.6636 27.3586 50.6636C23.4043 50.6636 19.5807 49.4172 16.5805 47.1504V47.1504ZM40.4867 44.9792C39.9156 43.3384 38.7616 41.902 37.1943 40.8809C35.627 39.8598 33.729 39.3078 31.7789 39.306H22.9383C20.9889 39.3084 19.0917 39.8606 17.525 40.8816C15.9584 41.9025 14.8048 43.3384 14.2336 44.9786C12.3244 42.8167 11.143 40.2268 10.8237 37.5033C10.5044 34.7799 11.0601 32.0322 12.4276 29.573C13.7951 27.1137 15.9194 25.0415 18.559 23.5921C21.1985 22.1427 24.2473 21.3743 27.3586 21.3743C30.4699 21.3743 33.5187 22.1427 36.1582 23.5921C38.7978 25.0415 40.9221 27.1137 42.2896 29.573C43.6571 32.0322 44.2128 34.7799 43.8935 37.5033C43.5742 40.2268 42.3928 42.8167 40.4836 44.9786L40.4867 44.9792Z" fill="#C4C4C4"/>
<path d="M27.3586 24.6849C25.7876 24.6862 24.2813 25.2359 23.1704 26.2134C22.0594 27.191 21.4345 28.5164 21.4329 29.8989V31.4802C21.4508 32.8527 22.0829 34.1637 23.1922 35.1288C24.3015 36.0938 25.7984 36.635 27.3582 36.635C28.9181 36.635 30.415 36.0938 31.5243 35.1288C32.6336 34.1637 33.2657 32.8527 33.2836 31.4802V29.8989C33.2818 28.5166 32.6569 27.1913 31.5462 26.2139C30.4354 25.2364 28.9295 24.6866 27.3586 24.6849ZM30.55 31.4795C30.5369 32.2166 30.195 32.9197 29.598 33.4369C29.001 33.9541 28.1968 34.244 27.359 34.244C26.5213 34.244 25.7171 33.9541 25.1201 33.4369C24.5231 32.9197 24.1811 32.2166 24.168 31.4795V29.8982C24.1811 29.1611 24.5231 28.4581 25.1201 27.9408C25.7171 27.4236 26.5213 27.1338 27.359 27.1338C28.1968 27.1338 29.001 27.4236 29.598 27.9408C30.195 28.4581 30.5369 29.1611 30.55 29.8982V31.4795Z" fill="#C4C4C4"/>
<path d="M98.6328 3.99426H68.6031V2.96301C68.6011 1.36813 67.8802 -0.160912 66.5986 -1.28867C65.3171 -2.41642 63.5796 -3.05079 61.7672 -3.05261H38.232C36.4197 -3.05079 34.6821 -2.41642 33.4006 -1.28867C32.119 -0.160912 31.3982 1.36813 31.3961 2.96301V3.99426H1.36719C1.00459 3.99426 0.656837 4.12102 0.40044 4.34665C0.144043 4.57228 0 4.8783 0 5.19739L0 59.8495C0 60.1686 0.144043 60.4746 0.40044 60.7003C0.656837 60.9259 1.00459 61.0526 1.36719 61.0526H98.6328C98.9954 61.0526 99.3432 60.9259 99.5996 60.7003C99.856 60.4746 100 60.1686 100 59.8495V5.19739C100 4.8783 99.856 4.57228 99.5996 4.34665C99.3432 4.12102 98.9954 3.99426 98.6328 3.99426V3.99426ZM34.1305 2.96301C34.1317 2.00608 34.5642 1.08866 35.3332 0.412006C36.1021 -0.264647 37.1446 -0.64527 38.232 -0.646362H61.7672C62.8546 -0.64527 63.8971 -0.264647 64.6661 0.412006C65.435 1.08866 65.8675 2.00608 65.8687 2.96301V9.70051H34.1305V2.96301ZM97.2656 58.6464H2.73438V6.40051H31.3961V10.9064C31.3963 11.2254 31.5404 11.5313 31.7968 11.7569C32.0531 11.9825 32.4007 12.1093 32.7633 12.1095H67.2359C67.5985 12.1095 67.9463 11.9828 68.2027 11.7571C68.4591 11.5315 68.6031 11.2255 68.6031 10.9064V6.40051H97.2656V58.6464Z" fill="#C4C4C4"/>
<path d="M52.6243 22.0065C52.6245 22.3255 52.7686 22.6314 53.0249 22.857C53.2813 23.0826 53.6289 23.2094 53.9915 23.2096H90.9969C91.3595 23.2096 91.7073 23.0828 91.9637 22.8572C92.2201 22.6316 92.3641 22.3256 92.3641 22.0065C92.3641 21.6874 92.2201 21.3814 91.9637 21.1557C91.7073 20.9301 91.3595 20.8033 90.9969 20.8033H53.9915C53.6289 20.8033 53.2811 20.9301 53.0247 21.1557C52.7683 21.3814 52.6243 21.6874 52.6243 22.0065V22.0065Z" fill="#C4C4C4"/>
<path d="M53.9915 30.2234H84.6555C85.0181 30.2234 85.3659 30.0966 85.6223 29.871C85.8787 29.6454 86.0227 29.3394 86.0227 29.0203C86.0227 28.7012 85.8787 28.3952 85.6223 28.1695C85.3659 27.9439 85.0181 27.8171 84.6555 27.8171H53.9915C53.6289 27.8171 53.2811 27.9439 53.0247 28.1695C52.7683 28.3952 52.6243 28.7012 52.6243 29.0203C52.6243 29.3394 52.7683 29.6454 53.0247 29.871C53.2811 30.0966 53.6289 30.2234 53.9915 30.2234Z" fill="#C4C4C4"/>
<path d="M90.9969 34.8318H53.9915C53.6289 34.8318 53.2811 34.9585 53.0247 35.1842C52.7683 35.4098 52.6243 35.7158 52.6243 36.0349C52.6243 36.354 52.7683 36.66 53.0247 36.8856C53.2811 37.1113 53.6289 37.238 53.9915 37.238H90.9969C91.3595 37.238 91.7073 37.1113 91.9637 36.8856C92.2201 36.66 92.3641 36.354 92.3641 36.0349C92.3641 35.7158 92.2201 35.4098 91.9637 35.1842C91.7073 34.9585 91.3595 34.8318 90.9969 34.8318Z" fill="#C4C4C4"/>
<path d="M53.9915 44.2526H84.6555C85.0181 44.2526 85.3659 44.1258 85.6223 43.9002C85.8787 43.6745 86.0227 43.3685 86.0227 43.0494C86.0227 42.7303 85.8787 42.4243 85.6223 42.1987C85.3659 41.9731 85.0181 41.8463 84.6555 41.8463H53.9915C53.6289 41.8463 53.2811 41.9731 53.0247 42.1987C52.7683 42.4243 52.6243 42.7303 52.6243 43.0494C52.6243 43.3685 52.7683 43.6745 53.0247 43.9002C53.2811 44.1258 53.6289 44.2526 53.9915 44.2526V44.2526Z" fill="#C4C4C4"/>
<path d="M90.9969 48.8602H53.9915C53.6289 48.8602 53.2811 48.987 53.0247 49.2126C52.7683 49.4382 52.6243 49.7443 52.6243 50.0634C52.6243 50.3824 52.7683 50.6885 53.0247 50.9141C53.2811 51.1397 53.6289 51.2665 53.9915 51.2665H90.9969C91.3595 51.2665 91.7073 51.1397 91.9637 50.9141C92.2201 50.6885 92.3641 50.3824 92.3641 50.0634C92.3641 49.7443 92.2201 49.4382 91.9637 49.2126C91.7073 48.987 91.3595 48.8602 90.9969 48.8602Z" fill="#C4C4C4"/>
</g>
<defs>
<clipPath id="clip0_45:50">
<rect width="100" height="88" fill="white"/>
</clipPath>
</defs>
</svg>
