<svg width="80" height="81" viewBox="0 0 80 81" fill="none" xmlns="http://www.w3.org/2000/svg">
<path d="M79.7037 39.5414C79.0737 38.6132 63.9335 16.8745 39.9998 16.8745C19.4628 16.8745 1.16248 38.4884 0.392467 39.4098C-0.130822 40.0376 -0.130822 40.9589 0.392467 41.59C1.16248 42.5114 19.4628 64.1253 39.9998 64.1253C60.5368 64.1253 78.837 42.5114 79.607 41.59C80.0904 41.0096 80.1337 40.1692 79.7037 39.5414ZM39.9998 60.7503C23.5363 60.7503 7.88258 44.8538 3.90596 40.5C7.87602 36.1429 23.513 20.2497 39.9998 20.2497C59.2634 20.2497 72.8603 36.1226 76.1804 40.4089C72.3469 44.6243 56.6033 60.7503 39.9998 60.7503Z" fill="#C4C4C4"/>
<path d="M39.9998 26.9997C32.6464 26.9997 26.6663 33.0545 26.6663 40.4998C26.6663 47.9451 32.6464 54 39.9998 54C47.3532 54 53.3333 47.9451 53.3333 40.4998C53.3333 33.0545 47.3532 26.9997 39.9998 26.9997ZM39.9998 50.6252C34.4864 50.6252 29.9996 46.0823 29.9996 40.5C29.9996 34.9177 34.4864 30.3748 39.9998 30.3748C45.5131 30.3748 49.9999 34.9177 49.9999 40.5C49.9999 46.0823 45.5131 50.6252 39.9998 50.6252Z" fill="#C4C4C4"/>
</svg>
