<svg width="95" height="73" viewBox="0 0 95 73" fill="none" xmlns="http://www.w3.org/2000/svg">
<g clip-path="url(#clip0_39:91)">
<path d="M74.2188 73H20.7812C15.8729 73 11.875 69.931 11.875 66.1562V34.2188C11.875 30.444 15.8729 27.375 20.7812 27.375H74.2188C79.1271 27.375 83.125 30.444 83.125 34.2188V66.1562C83.125 69.931 79.1271 73 74.2188 73ZM20.7812 31.9375C19.1465 31.9375 17.8125 32.9595 17.8125 34.2188V66.1562C17.8125 67.4155 19.1465 68.4375 20.7812 68.4375H74.2188C75.8535 68.4375 77.1875 67.4155 77.1875 66.1562V34.2188C77.1875 32.9595 75.8535 31.9375 74.2188 31.9375H20.7812Z" fill="#C4C4C4"/>
<path d="M68.2812 31.9375C66.6425 31.9375 65.3125 30.9155 65.3125 29.6562V18.25C65.3125 10.7036 57.3206 4.5625 47.5 4.5625C37.6794 4.5625 29.6875 10.7036 29.6875 18.25V29.6562C29.6875 30.9155 28.3575 31.9375 26.7188 31.9375C25.08 31.9375 23.75 30.9155 23.75 29.6562V18.25C23.75 8.18513 34.4019 0 47.5 0C60.5981 0 71.25 8.18513 71.25 18.25V29.6562C71.25 30.9155 69.92 31.9375 68.2812 31.9375Z" fill="#C4C4C4"/>
<path d="M47.5 51.7083C43.134 51.7083 39.5834 48.9799 39.5834 45.625C39.5834 42.27 43.134 39.5417 47.5 39.5417C51.8661 39.5417 55.4167 42.27 55.4167 45.625C55.4167 48.9799 51.8661 51.7083 47.5 51.7083ZM47.5 44.1042C46.4115 44.1042 45.5209 44.7855 45.5209 45.625C45.5209 46.4645 46.4115 47.1458 47.5 47.1458C48.5886 47.1458 49.4792 46.4645 49.4792 45.625C49.4792 44.7855 48.5886 44.1042 47.5 44.1042Z" fill="#C4C4C4"/>
<path d="M47.5 60.8333C45.8612 60.8333 44.5312 59.8113 44.5312 58.5521V50.1875C44.5312 48.9282 45.8612 47.9062 47.5 47.9062C49.1388 47.9062 50.4688 48.9282 50.4688 50.1875V58.5521C50.4688 59.8113 49.1388 60.8333 47.5 60.8333Z" fill="#C4C4C4"/>
</g>
<defs>
<clipPath id="clip0_39:91">
<rect width="95" height="73" fill="white"/>
</clipPath>
</defs>
</svg>
