<svg width="38" height="40" viewBox="0 0 38 40" fill="none" xmlns="http://www.w3.org/2000/svg">
<path d="M19 3.33333C10.26 3.33333 3.16666 10.8 3.16666 20C3.16666 29.2 10.26 36.6667 19 36.6667C27.74 36.6667 34.8333 29.2 34.8333 20C34.8333 10.8 27.74 3.33333 19 3.33333ZM6.33332 20C6.33332 18.9833 6.45999 17.9833 6.66582 17.0333L14.2342 25V26.6667C14.2342 28.5 15.6592 30 17.4008 30V33.2167C11.1783 32.3833 6.33332 26.7833 6.33332 20ZM28.3258 29C27.9142 27.65 26.7425 26.6667 25.3175 26.6667H23.7342V21.6667C23.7342 20.75 23.0217 20 22.1508 20H12.6508V16.6667H15.8175C16.6883 16.6667 17.4008 15.9167 17.4008 15V11.6667H20.5675C22.3092 11.6667 23.7342 10.1667 23.7342 8.33333V7.65C28.3733 9.61666 31.6667 14.4167 31.6667 20C31.6667 23.4667 30.3842 26.6333 28.3258 29Z" fill="white"/>
</svg>
