<svg width="203" height="180" viewBox="0 0 203 180" fill="none" xmlns="http://www.w3.org/2000/svg">
<path d="M101.5 0C45.5329 0 0 40.374 0 90C0 111.735 8.73577 131.694 23.257 147.264C23.2943 147.309 23.2976 147.366 23.3382 147.408C33.8232 158.619 46.9911 167.214 61.6646 172.767C61.8338 172.83 61.9996 172.899 62.1688 172.962C63.3563 173.406 64.5574 173.817 65.7619 174.219C66.2355 174.378 66.7092 174.54 67.1896 174.693C68.2283 175.023 69.2738 175.335 70.326 175.635C70.9993 175.827 71.6725 176.016 72.3526 176.196C73.283 176.442 74.2168 176.679 75.1574 176.904C75.9829 177.102 76.8152 177.285 77.6475 177.462C78.49 177.642 79.3358 177.822 80.185 177.981C81.1323 178.161 82.0898 178.32 83.0507 178.476C83.8221 178.602 84.5901 178.734 85.3683 178.845C86.434 178.998 87.5065 179.118 88.5824 179.241C89.276 179.319 89.9662 179.409 90.6632 179.475C91.8812 179.589 93.1093 179.67 94.3409 179.745C94.9127 179.781 95.4811 179.835 96.0562 179.862C97.8528 179.952 99.6696 180 101.5 180C103.33 180 105.147 179.952 106.951 179.868C107.526 179.841 108.094 179.787 108.666 179.751C109.897 179.673 111.126 179.595 112.344 179.481C113.041 179.415 113.731 179.325 114.424 179.247C115.5 179.124 116.573 179.004 117.639 178.851C118.413 178.74 119.185 178.608 119.956 178.482C120.914 178.326 121.871 178.167 122.822 177.987C123.671 177.825 124.513 177.648 125.359 177.468C126.192 177.288 127.024 177.105 127.849 176.91C128.79 176.688 129.724 176.448 130.654 176.202C131.334 176.022 132.008 175.833 132.681 175.641C133.733 175.341 134.778 175.029 135.817 174.699C136.294 174.546 136.768 174.384 137.245 174.225C138.453 173.823 139.65 173.409 140.838 172.968C141.007 172.905 141.173 172.836 141.342 172.773C156.012 167.22 169.184 158.625 179.669 147.414C179.709 147.372 179.713 147.312 179.75 147.27C194.264 131.694 203 111.735 203 90C203 40.374 157.467 0 101.5 0ZM142.631 165.66C142.58 165.681 142.533 165.705 142.482 165.726C141.274 166.242 140.046 166.728 138.808 167.202C138.527 167.307 138.25 167.415 137.969 167.52C136.886 167.922 135.79 168.303 134.687 168.669C134.227 168.822 133.767 168.972 133.303 169.116C132.326 169.425 131.344 169.722 130.353 170.004C129.737 170.178 129.118 170.343 128.499 170.505C127.619 170.739 126.736 170.964 125.843 171.174C125.092 171.351 124.334 171.513 123.576 171.672C122.781 171.84 121.989 172.011 121.188 172.161C120.311 172.326 119.428 172.467 118.549 172.608C117.835 172.725 117.124 172.848 116.404 172.95C115.412 173.088 114.411 173.199 113.413 173.31C112.78 173.382 112.151 173.466 111.511 173.526C110.371 173.634 109.221 173.703 108.074 173.775C107.563 173.805 107.055 173.856 106.538 173.88C104.863 173.958 103.185 174 101.5 174C99.8151 174 98.137 173.958 96.4656 173.88C95.9513 173.856 95.4438 173.808 94.9296 173.775C93.7792 173.706 92.6323 173.634 91.4921 173.526C90.8527 173.466 90.2234 173.382 89.5907 173.31C88.5926 173.199 87.5911 173.088 86.5998 172.95C85.8792 172.848 85.1687 172.725 84.4548 172.608C83.5717 172.467 82.6887 172.323 81.8158 172.161C81.0139 172.011 80.2188 171.84 79.4271 171.672C78.6693 171.51 77.9114 171.351 77.1603 171.174C76.2705 170.964 75.384 170.736 74.5044 170.505C73.8852 170.343 73.2661 170.178 72.6503 170.004C71.659 169.722 70.6745 169.425 69.7001 169.116C69.2365 168.969 68.7764 168.819 68.3163 168.669C67.2133 168.303 66.1171 167.922 65.0344 167.52C64.7536 167.418 64.4796 167.31 64.1988 167.205C62.9605 166.734 61.7323 166.245 60.5211 165.729C60.4703 165.708 60.423 165.687 60.3722 165.663C48.5677 160.599 38.1403 153.411 29.6786 144.681C36.2186 123.327 54.7322 106.113 78.5508 99.264C79.0211 99.519 79.5117 99.747 79.9955 99.987C80.2797 100.128 80.5606 100.278 80.8481 100.413C81.8564 100.887 82.8781 101.331 83.9236 101.73C84.7254 102.042 85.5544 102.306 86.3799 102.576C86.5423 102.627 86.7047 102.684 86.8671 102.735C91.4549 104.175 96.3641 105 101.5 105C106.636 105 111.545 104.175 116.13 102.735C116.292 102.684 116.454 102.627 116.617 102.576C117.442 102.306 118.271 102.042 119.073 101.73C120.118 101.331 121.14 100.887 122.148 100.413C122.436 100.275 122.717 100.128 123.001 99.987C123.485 99.747 123.979 99.519 124.453 99.261C148.271 106.113 166.781 123.327 173.325 144.678C164.863 153.405 154.436 160.593 142.631 165.66ZM64.2833 66C64.2833 47.805 80.9801 33 101.5 33C122.02 33 138.717 47.805 138.717 66C138.717 77.574 131.947 87.759 121.746 93.651C120.413 94.419 119.026 95.106 117.601 95.706C117.432 95.778 117.266 95.853 117.097 95.922C107.299 99.873 95.701 99.873 85.9028 95.922C85.7337 95.853 85.5645 95.778 85.3987 95.706C83.9709 95.106 82.5872 94.419 81.2541 93.651C71.0534 87.759 64.2833 77.574 64.2833 66ZM178.4 138.969C170.73 118.887 153.231 102.657 130.874 94.947C139.816 87.804 145.483 77.49 145.483 66C145.483 44.496 125.752 27 101.5 27C77.2483 27 57.5167 44.496 57.5167 66C57.5167 77.49 63.1838 87.804 72.1293 94.947C49.7722 102.66 32.2736 118.887 24.6036 138.969C13.3946 125.172 6.76667 108.264 6.76667 90C6.76667 43.683 49.2647 6 101.5 6C153.735 6 196.233 43.683 196.233 90C196.233 108.264 189.605 125.172 178.4 138.969Z" fill="black"/>
</svg>
