<svg width="50" height="50" viewBox="0 0 50 50" fill="none" xmlns="http://www.w3.org/2000/svg">
<g clip-path="url(#clip0_82:12)">
<path d="M15.8857 36.4351C16.5689 36.4351 18.0208 36.8951 19.5752 37.473C19.7031 37.5205 19.8394 37.4256 19.8394 37.2891V31.7291C19.8394 30.9168 19.1809 30.2582 18.3685 30.2582H12.8994C12.7633 30.2582 12.6685 30.1227 12.7152 29.9948C13.2526 28.5285 13.6684 27.1846 13.6684 26.5352C13.6684 24.6981 12.1791 23.2088 10.342 23.2088C8.50488 23.2088 7.01562 24.6981 7.01562 26.5352C7.01562 27.1846 7.43125 28.5285 7.96875 29.9948C8.01562 30.1227 7.9208 30.2582 7.78457 30.2582H2.30391C1.4916 30.2582 0.833008 30.9167 0.833008 31.7291V47.7937C0.833008 48.606 1.4915 49.2646 2.30391 49.2646H18.3685C19.1808 49.2646 19.8394 48.6061 19.8394 47.7937V42.2337C19.8394 42.0972 19.7032 42.0023 19.5752 42.0498C18.0208 42.6277 16.5689 43.0877 15.8857 43.0877C14.0486 43.0877 12.5594 41.5985 12.5594 39.7613C12.5595 37.9243 14.0486 36.4351 15.8857 36.4351Z" fill="#CBAFEA"/>
<path d="M23.5663 6.91809C22.9169 6.91809 21.573 7.33372 20.1066 7.87122C19.9788 7.91809 19.8433 7.82327 19.8433 7.68704V2.20637C19.8433 1.39407 19.1848 0.735474 18.3724 0.735474H2.30781C1.49551 0.735474 0.836914 1.39397 0.836914 2.20637V18.2709C0.836914 19.0832 1.49541 19.7418 2.30781 19.7418H7.86777C8.0043 19.7418 8.09922 19.6057 8.05166 19.4777C7.47373 17.9233 7.01377 16.4714 7.01377 15.7882C7.01377 13.9511 8.50303 12.4618 10.3401 12.4618C12.1772 12.4618 13.6665 13.9511 13.6665 15.7882C13.6665 16.4714 13.2064 17.9233 12.6286 19.4777C12.5811 19.6056 12.676 19.7418 12.8125 19.7418H18.3725C19.1848 19.7418 19.8434 19.0833 19.8434 18.2709V12.8018C19.8434 12.6657 19.9789 12.5708 20.1067 12.6176C21.573 13.155 22.917 13.5707 23.5664 13.5707C25.4035 13.5707 26.8928 12.0815 26.8928 10.2444C26.8926 8.40735 25.4033 6.91809 23.5663 6.91809Z" fill="#AAD880"/>
<path d="M47.6961 0.735474H31.6315C30.8192 0.735474 30.1606 1.39397 30.1606 2.20637V7.76633C30.1606 7.90286 30.2968 7.99778 30.4248 7.95022C31.9792 7.37229 33.4311 6.91233 34.1143 6.91233C35.9514 6.91233 37.4406 8.40159 37.4406 10.2387C37.4406 12.0758 35.9514 13.5651 34.1143 13.5651C33.4311 13.5651 31.9792 13.105 30.4248 12.5272C30.2969 12.4796 30.1606 12.5745 30.1606 12.7111V18.271C30.1606 19.0833 30.8191 19.7419 31.6315 19.7419H37.1006C37.2367 19.7419 37.3315 19.8775 37.2848 20.0053C36.7474 21.4716 36.3316 22.8156 36.3316 23.465C36.3316 25.3021 37.8209 26.7913 39.658 26.7913C41.4951 26.7913 42.9844 25.3021 42.9844 23.465C42.9844 22.8156 42.5688 21.4716 42.0313 20.0053C41.9844 19.8775 42.0792 19.7419 42.2154 19.7419H47.6962C48.5085 19.7419 49.1671 19.0834 49.1671 18.271V2.20637C49.167 1.39397 48.5084 0.735474 47.6961 0.735474Z" fill="#FFD064"/>
<path d="M42.1324 30.2583C41.9959 30.2583 41.901 30.3944 41.9485 30.5224C42.5265 32.0768 42.9864 33.5287 42.9864 34.2119C42.9864 36.049 41.4972 37.5383 39.6601 37.5383C37.8229 37.5383 36.3337 36.049 36.3337 34.2119C36.3337 33.5287 36.7937 32.0768 37.3716 30.5224C37.4191 30.3945 37.3242 30.2583 37.1877 30.2583H31.6277C30.8154 30.2583 30.1568 30.9168 30.1568 31.7292V37.1982C30.1568 37.3344 30.0213 37.4292 29.8935 37.3824C28.4271 36.845 27.0832 36.4293 26.4338 36.4293C24.5967 36.4293 23.1074 37.9185 23.1074 39.7556C23.1074 41.5928 24.5967 43.082 26.4338 43.082C27.0832 43.082 28.4271 42.6664 29.8935 42.1289C30.0213 42.082 30.1568 42.1768 30.1568 42.3131V47.7937C30.1568 48.606 30.8153 49.2646 31.6277 49.2646H47.6924C48.5047 49.2646 49.1633 48.6061 49.1633 47.7937V31.7291C49.1633 30.9168 48.5048 30.2582 47.6924 30.2582H42.1324V30.2583Z" fill="#9DC6FB"/>
<path d="M19.5751 42.0498C18.819 42.3309 18.0881 42.5835 17.4572 42.7695V45.4117C17.4572 46.224 16.7987 46.8826 15.9863 46.8826H0.833008V47.7937C0.833008 48.606 1.4915 49.2646 2.30391 49.2646H18.3685C19.1808 49.2646 19.8394 48.6061 19.8394 47.7937V42.2337C19.8393 42.0972 19.703 42.0023 19.5751 42.0498Z" fill="#BC95E2"/>
<path d="M18.3687 30.2583H17.4575V36.7533C18.0884 36.9393 18.8193 37.1919 19.5754 37.4729C19.7033 37.5205 19.8396 37.4256 19.8396 37.2891V31.7291C19.8396 30.9168 19.181 30.2583 18.3687 30.2583Z" fill="#BC95E2"/>
<path d="M24.4037 7.0246C24.4732 7.29227 24.5103 7.57294 24.5103 7.86229C24.5103 9.6994 23.021 11.1887 21.1839 11.1887C20.5345 11.1887 19.1906 10.773 17.7242 10.2355C17.5964 10.1887 17.4609 10.2835 17.4609 10.4197V15.8888C17.4609 16.7011 16.8024 17.3597 15.99 17.3597H13.3478C13.1618 17.9905 12.9092 18.7215 12.6281 19.4775C12.5806 19.6055 12.6755 19.7417 12.812 19.7417H18.372C19.1843 19.7417 19.8429 19.0832 19.8429 18.2708V12.8017C19.8429 12.6656 19.9784 12.5708 20.1063 12.6176C21.5726 13.155 22.9165 13.5707 23.5659 13.5707C25.4031 13.5707 26.8923 12.0814 26.8923 10.2443C26.8923 8.69667 25.8353 7.39608 24.4037 7.0246Z" fill="#80CB8E"/>
<path d="M47.6959 0.735474H46.7848V15.8888C46.7848 16.7011 46.1263 17.3597 45.3139 17.3597H39.8332C39.6971 17.3597 39.6021 17.4952 39.649 17.6231C40.1864 19.0894 40.6021 20.4333 40.6021 21.0827C40.6021 22.9198 39.1129 24.4091 37.2758 24.4091C36.9864 24.4091 36.7057 24.372 36.438 24.3026C36.8094 25.7341 38.1101 26.7911 39.6578 26.7911C41.4949 26.7911 42.9842 25.3019 42.9842 23.4648C42.9842 22.8154 42.5686 21.4714 42.0311 20.0051C41.9842 19.8773 42.079 19.7417 42.2152 19.7417H47.6959C48.5082 19.7417 49.1668 19.0832 49.1668 18.2708V2.20637C49.1668 1.39397 48.5082 0.735474 47.6959 0.735474Z" fill="#ECBE6B"/>
<path d="M47.6921 30.2583H46.781V45.4116C46.781 46.2239 46.1225 46.8825 45.3101 46.8825H30.1567V47.7936C30.1567 48.606 30.8152 49.2645 31.6276 49.2645H47.6921C48.5044 49.2645 49.163 48.6061 49.163 47.7936V31.7291C49.163 30.9168 48.5044 30.2583 47.6921 30.2583Z" fill="#80B4FB"/>
<path d="M18.3686 50H2.304C1.0875 50 0.0976562 49.0103 0.0976562 47.7936V31.7292C0.0976562 30.5127 1.0874 29.5228 2.304 29.5228H7.01924C6.36299 27.632 6.28027 26.9149 6.28027 26.5352C6.28027 24.2956 8.10244 22.4735 10.342 22.4735C12.5815 22.4735 14.4037 24.2957 14.4037 26.5352C14.4037 26.9151 14.3211 27.6323 13.6648 29.5228H18.3685C19.585 29.5228 20.5747 30.5126 20.5747 31.7292V37.2891C20.5747 37.5939 20.4253 37.8799 20.1751 38.054C19.925 38.2279 19.605 38.2685 19.3194 38.1626C16.9979 37.2995 16.1716 37.1706 15.8857 37.1706C14.4571 37.1706 13.2948 38.3328 13.2948 39.7615C13.2948 41.1902 14.457 42.3524 15.8857 42.3524C16.1716 42.3524 16.9979 42.2235 19.3189 41.3605C19.6045 41.2545 19.9244 41.2948 20.1748 41.4688C20.4252 41.643 20.5747 41.9289 20.5747 42.2339V47.7938C20.5747 49.0103 19.5851 50 18.3686 50ZM2.304 30.9937C1.89844 30.9937 1.56855 31.3236 1.56855 31.7292V47.7937C1.56855 48.1993 1.89844 48.5292 2.304 48.5292H18.3686C18.774 48.5292 19.1039 48.1993 19.1039 47.7937V43.0035C17.046 43.732 16.2842 43.8232 15.8858 43.8232C13.6462 43.8232 11.8241 42.0011 11.8241 39.7615C11.8241 37.5219 13.6463 35.6998 15.8858 35.6998C16.2842 35.6998 17.0461 35.791 19.1039 36.5195V31.7293C19.1039 31.3237 18.774 30.9938 18.3686 30.9938H12.8994C12.5955 30.9938 12.3101 30.845 12.1358 30.5958C11.9617 30.3467 11.9202 30.0274 12.0248 29.742C12.815 27.5862 12.933 26.8076 12.933 26.5353C12.933 25.1067 11.7708 23.9444 10.3421 23.9444C8.91338 23.9444 7.75117 25.1066 7.75117 26.5353C7.75117 26.8075 7.86914 27.5859 8.65937 29.7419C8.76406 30.0269 8.72256 30.3462 8.54844 30.5955C8.37432 30.8449 8.08877 30.9938 7.78467 30.9938H2.304V30.9937Z" fill="black"/>
<path d="M18.3725 20.4771H12.8125C12.5075 20.4771 12.2215 20.3275 12.0474 20.0771C11.8733 19.8268 11.8329 19.5068 11.9393 19.2212C12.8021 16.9003 12.9311 16.074 12.9311 15.7882C12.9311 14.3596 11.7688 13.1973 10.3401 13.1973C8.91143 13.1973 7.74922 14.3595 7.74922 15.7882C7.74922 16.074 7.87812 16.9003 8.74111 19.2214C8.84727 19.5068 8.80693 19.8268 8.63291 20.0771C8.45879 20.3275 8.17275 20.4771 7.86777 20.4771H2.30791C1.09141 20.4771 0.101562 19.4874 0.101562 18.2708V2.20635C0.101562 0.989746 1.09141 0 2.30791 0H5.86592C6.27217 0 6.60137 0.329199 6.60137 0.735449C6.60137 1.1417 6.27217 1.4709 5.86592 1.4709H2.30791C1.90234 1.4709 1.57246 1.80078 1.57246 2.20635V18.2709C1.57246 18.6765 1.90234 19.0063 2.30791 19.0063H7.09814C6.36963 16.9483 6.27842 16.1866 6.27842 15.7883C6.27842 13.5486 8.10059 11.7266 10.3401 11.7266C12.5797 11.7266 14.4019 13.5487 14.4019 15.7883C14.4019 16.1866 14.3106 16.9485 13.5821 19.0063H18.3724C18.7779 19.0063 19.1078 18.6765 19.1078 18.2709V12.8018C19.1078 12.4978 19.2566 12.2123 19.5059 12.0382C19.755 11.864 20.0743 11.8225 20.3595 11.9271C22.5158 12.7174 23.2942 12.8354 23.5663 12.8354C24.9949 12.8354 26.1572 11.6731 26.1572 10.2444C26.1572 8.81572 24.995 7.65352 23.5663 7.65352C23.2942 7.65352 22.5158 7.77148 20.3597 8.56172C20.074 8.66611 19.7551 8.62471 19.5059 8.45068C19.2566 8.27656 19.1078 7.99111 19.1078 7.68711V2.20635C19.1078 1.80078 18.7779 1.4709 18.3724 1.4709H9.33164C8.92539 1.4709 8.59619 1.1417 8.59619 0.735449C8.59619 0.329199 8.92539 0 9.33164 0H18.3725C19.589 0 20.5788 0.989746 20.5788 2.20635V6.92168C22.4696 6.26533 23.1867 6.18271 23.5664 6.18271C25.8061 6.18271 27.6281 8.00488 27.6281 10.2444C27.6281 12.484 25.806 14.3062 23.5664 14.3062C23.1867 14.3062 22.4696 14.2235 20.5788 13.5672V18.2708C20.5788 19.4874 19.589 20.4771 18.3725 20.4771Z" fill="black"/>
<path d="M39.658 27.5266C37.4184 27.5266 35.5963 25.7044 35.5963 23.4648C35.5963 23.0852 35.6789 22.368 36.3353 20.4772H31.6316C30.4151 20.4772 29.4253 19.4875 29.4253 18.2709V12.7109C29.4253 12.4061 29.5748 12.1201 29.8251 11.9461C30.0754 11.772 30.3952 11.7315 30.6809 11.8375C33.0022 12.7006 33.8285 12.8295 34.1144 12.8295C35.543 12.8295 36.7053 11.6673 36.7053 10.2386C36.7053 8.80986 35.5431 7.64766 34.1144 7.64766C33.8285 7.64766 33.0022 7.77656 30.6812 8.63955C30.3959 8.7457 30.0758 8.70537 29.8254 8.53135C29.575 8.35723 29.4254 8.07119 29.4254 7.76621V2.20635C29.4253 0.989746 30.415 0 31.6315 0H47.6961C48.9127 0 49.9024 0.989746 49.9024 2.20635V13.1749C49.9024 13.5812 49.5732 13.9104 49.167 13.9104C48.7607 13.9104 48.4315 13.5812 48.4315 13.1749V2.20635C48.4315 1.80078 48.1017 1.4709 47.6961 1.4709H31.6315C31.226 1.4709 30.8961 1.80078 30.8961 2.20635V6.99658C32.9541 6.26807 33.7158 6.17686 34.1142 6.17686C36.3538 6.17686 38.1759 7.99902 38.1759 10.2386C38.1759 12.4781 36.3537 14.3003 34.1142 14.3003C33.7158 14.3003 32.9539 14.2091 30.8961 13.4806V18.2708C30.8961 18.6764 31.226 19.0062 31.6315 19.0062H37.1006C37.4046 19.0062 37.6899 19.1551 37.8642 19.4043C38.0383 19.6534 38.0798 19.9727 37.9752 20.2581C37.185 22.4142 37.067 23.1926 37.067 23.4647C37.067 24.8934 38.2292 26.0557 39.6579 26.0557C41.0866 26.0557 42.2488 24.8935 42.2488 23.4647C42.2488 23.1926 42.1309 22.4142 41.3406 20.2582C41.236 19.9727 41.2776 19.6535 41.4517 19.4043C41.6258 19.1551 41.9112 19.0062 42.2152 19.0062H47.696C48.1016 19.0062 48.4314 18.6764 48.4314 18.2708V16.6711C48.4314 16.2648 48.7606 15.9356 49.1669 15.9356C49.5731 15.9356 49.9023 16.2648 49.9023 16.6711V18.2708C49.9023 19.4873 48.9126 20.4771 47.696 20.4771H42.9807C43.6369 22.3679 43.7196 23.0851 43.7196 23.4647C43.7197 25.7044 41.8977 27.5266 39.658 27.5266Z" fill="black"/>
<path d="M47.6922 50H42.9498C42.5436 50 42.2144 49.6708 42.2144 49.2646C42.2144 48.8583 42.5436 48.5291 42.9498 48.5291H47.6922C48.0978 48.5291 48.4276 48.1993 48.4276 47.7937V31.7292C48.4276 31.3237 48.0978 30.9938 47.6922 30.9938H42.9021C43.6305 33.052 43.7217 33.8136 43.7217 34.2119C43.7217 36.4515 41.8995 38.2736 39.66 38.2736C37.4203 38.2736 35.5982 36.4514 35.5982 34.2119C35.5982 33.8135 35.6895 33.0516 36.418 30.9938H31.6277C31.2222 30.9938 30.8923 31.3237 30.8923 31.7292V37.1983C30.8923 37.5023 30.7435 37.7877 30.4942 37.9619C30.2453 38.1361 29.9261 38.1778 29.6405 38.0729C27.4843 37.2827 26.706 37.1647 26.4339 37.1647C25.0053 37.1647 23.843 38.3269 23.843 39.7556C23.843 41.1842 25.0052 42.3465 26.4339 42.3465C26.706 42.3465 27.4843 42.2285 29.6404 41.4383C29.9258 41.3337 30.245 41.3752 30.4942 41.5494C30.7435 41.7235 30.8923 42.0089 30.8923 42.3129V47.7937C30.8923 48.1993 31.2222 48.5291 31.6277 48.5291H39.3155C39.7218 48.5291 40.051 48.8583 40.051 49.2646C40.051 49.6708 39.7217 50 39.3154 50H31.6276C30.4111 50 29.4213 49.0103 29.4213 47.7937V43.0784C27.5305 43.7347 26.8135 43.8173 26.4338 43.8173C24.1941 43.8173 22.3721 41.9951 22.3721 39.7556C22.3721 37.516 24.1942 35.6939 26.4338 35.6939C26.8135 35.6939 27.5305 35.7765 29.4213 36.4328V31.7292C29.4213 30.5127 30.411 29.5229 31.6276 29.5229H37.1877C37.4927 29.5229 37.7786 29.6725 37.9527 29.9229C38.1267 30.1732 38.1672 30.4932 38.0608 30.7788C37.1979 33.0997 37.069 33.926 37.069 34.2119C37.069 35.6405 38.2312 36.8028 39.66 36.8028C41.0887 36.8028 42.2509 35.6406 42.2509 34.2119C42.2509 33.926 42.1221 33.0999 41.2591 30.7787C41.1529 30.4932 41.1933 30.1732 41.3673 29.9229C41.5414 29.6724 41.8273 29.5229 42.1323 29.5229H47.6923C48.9088 29.5229 49.8986 30.5126 49.8986 31.7292V47.7938C49.8985 49.0103 48.9087 50 47.6922 50Z" fill="black"/>
</g>
<defs>
<clipPath id="clip0_82:12">
<rect width="50" height="50" fill="white"/>
</clipPath>
</defs>
</svg>
