<svg width="75" height="64" viewBox="0 0 75 64" fill="none" xmlns="http://www.w3.org/2000/svg">
<g clip-path="url(#clip0_39:69)">
<path d="M37.5 32.0825C17.7354 32.0825 1.65515 45.8044 1.65515 62.6701C1.65515 63.4042 2.3534 64 3.21367 64C4.07395 64 4.77219 63.4042 4.77219 62.6701C4.77219 47.2699 19.453 34.7422 37.5001 34.7422C55.5472 34.7422 70.2281 47.2699 70.2281 62.6701C70.2281 63.4042 70.9263 64 71.7866 64C72.6469 64 73.3451 63.4042 73.3451 62.6701C73.345 45.8017 57.2646 32.0825 37.5 32.0825Z" fill="#C4C4C4"/>
<path d="M37.4998 0C28.0492 0 20.3567 6.56167 20.3567 14.6288C20.3567 22.696 28.0494 29.2576 37.4998 29.2576C46.9503 29.2576 54.643 22.696 54.643 14.6288C54.643 6.56167 46.9505 0 37.4998 0ZM37.4998 26.5979C29.7667 26.5979 23.4736 21.2278 23.4736 14.6288C23.4736 8.02988 29.7667 2.65975 37.4998 2.65975C45.233 2.65975 51.5261 8.02988 51.5261 14.6288C51.5261 21.2278 45.233 26.5979 37.4998 26.5979Z" fill="#C4C4C4"/>
</g>
<defs>
<clipPath id="clip0_39:69">
<rect width="75" height="64" fill="white"/>
</clipPath>
</defs>
</svg>
