<svg width="50" height="50" viewBox="0 0 50 50" fill="none" xmlns="http://www.w3.org/2000/svg">
<g clip-path="url(#clip0_82:48)">
<path d="M25 0C11.1909 0 0 11.1909 0 25C0 32.4508 3.25787 39.1437 8.43504 43.7303C12.8543 47.6279 18.6516 50 25 50C31.3583 50 37.1555 47.628 41.565 43.7205C46.7421 39.1437 50 32.4508 50 25C50 11.1909 38.8091 0 25 0Z" fill="#89D6F7"/>
<path d="M39.6064 41.6929C38.3269 40.7382 36.004 39.1536 33.4745 37.9823C30.945 36.8209 29.4588 34.0945 29.8623 31.3485C29.8623 31.3091 29.8721 31.2697 29.882 31.2205C29.882 31.2205 35.6399 27.3229 34.8426 23.5237C34.8426 23.5237 35.0198 23.5335 35.2855 23.5138C37.8249 23.2776 37.9824 19.4981 35.4725 19.0945C35.4529 19.0945 35.4233 19.0847 35.4036 19.0847L35.3249 18.6713C36.0926 15.9843 37.9627 7.84452 32.3032 8.63192C32.3032 8.63192 28.2383 1.90948 19.6458 5.14767C11.0434 8.37602 13.2875 16.0827 13.2875 16.0827L14.3505 19.1536C12.0375 19.7244 12.254 23.2973 14.7147 23.5237C14.9804 23.5433 15.1674 23.5335 15.1674 23.5335C14.3603 27.3327 20.1182 31.2303 20.1182 31.2303C20.128 31.2796 20.128 31.3189 20.1379 31.3583C20.5316 34.1044 19.0454 36.8307 16.5257 37.9922C13.9863 39.1634 11.6733 40.7579 10.3938 41.7028C9.62608 42.2638 8.94695 42.9429 8.42529 43.7402C12.8544 47.628 18.6517 50 25.0001 50C31.3584 50 37.1556 47.628 41.5651 43.7205C41.0532 42.9331 40.3741 42.254 39.6064 41.6929Z" fill="#41596B"/>
</g>
<defs>
<clipPath id="clip0_82:48">
<rect width="50" height="50" fill="white"/>
</clipPath>
</defs>
</svg>
